#!OML:ASF F:\VICON\USERDATA\INSTALL\rory3\rory3.ASF
:FULLY-SPECIFIED
:DEGREES
641
root 0.448607 17.9357 -0.233896 2.07863 -32.7551 -0.704488
lowerback -1.14876 -1.14539 -3.47033
upperback -0.39957 -1.49517 1.41203
thorax 0.36047 -0.749649 3.37434
lowerneck -19.2866 -4.73336 -11.6753
upperneck 25.2695 -5.19955 7.36275
head 12.0295 -2.57334 3.89091
rclavicle -2.76233e-014 -1.19271e-014
rhumerus -15.631 46.6215 -78.4253
rradius 122.18
rwrist 32.6281
rhand 6.72096 8.10303
rfingers 7.12502
rthumb 32.01 -19.1009
lclavicle -2.76233e-014 -1.19271e-014
lhumerus -39.331 -30.6962 101.408
lradius 89.3155
lwrist 9.71264
lhand -21.0076 27.7372
lfingers 7.12502
lthumb 5.36698 57.6493
rfemur -7.11359 4.45345 12.9697
rtibia 22.0112
rfoot -15.393 -9.15335
rtoes 1.5645
lfemur 1.29904 1.11235 -21.6464
ltibia 14.634
lfoot -12.2524 9.54037
ltoes -12.226
642
root 0.444436 17.9424 -0.256218 2.29298 -32.4187 -0.787288
lowerback -0.938521 -1.27815 -3.57118
upperback -0.551242 -1.67981 1.45363
thorax 0.106523 -0.83446 3.47784
lowerneck -19.2543 -4.68174 -11.6052
upperneck 25.3328 -5.14656 7.32703
head 12.0381 -2.5495 3.87598
rclavicle 1.043e-014 -5.36719e-015
rhumerus -15.9184 46.4357 -78.6616
rradius 122.421
rwrist 31.9311
rhand 7.45261 8.24767
rfingers 7.12502
rthumb 32.7064 -18.814
lclavicle 1.043e-014 -5.36719e-015
lhumerus -39.4508 -30.6793 101.378
lradius 89.3777
lwrist 9.67825
lhand -21.1725 27.954
lfingers 7.12502
lthumb 5.20776 57.87
rfemur -7.26356 4.49403 13.1535
rtibia 22.0503
rfoot -15.6276 -9.46456
rtoes 1.91493
lfemur 1.03896 1.33509 -21.3866
ltibia 14.5588
lfoot -12.116 8.90808
ltoes -12.0195
643
root 0.441752 17.9385 -0.244205 2.1674 -32.4967 -0.484537
lowerback -1.03317 -1.2859 -3.75682
upperback -0.576412 -1.68529 1.37842
thorax 0.137179 -0.837124 3.50278
lowerneck -19.182 -4.63421 -11.6175
upperneck 25.3372 -5.0806 7.3147
head 12.0177 -2.52456 3.88492
rclavicle -1.31455e-013 2.88238e-015
rhumerus -16.2316 46.3462 -78.8357
rradius 122.668
rwrist 31.7601
rhand 7.90292 8.07544
rfingers 7.12502
rthumb 33.1347 -18.8962
lclavicle -1.31455e-013 2.88238e-015
lhumerus -39.5689 -30.4777 101.408
lradius 89.415
lwrist 9.72309
lhand -21.0465 28.2068
lfingers 7.12502
lthumb 5.32941 58.1197
rfemur -7.30679 4.37982 12.8128
rtibia 22.0921
rfoot -15.5609 -9.29642
rtoes 1.74121
lfemur 1.08627 1.18196 -21.7405
ltibia 14.5052
lfoot -12.0901 9.12819
ltoes -12.1375
644
root 0.438519 17.936 -0.233555 2.09379 -32.6521 -0.27498
lowerback -1.16597 -1.27611 -3.8929
upperback -0.554438 -1.66568 1.35301
thorax 0.235493 -0.829651 3.55006
lowerneck -19.1857 -4.6188 -11.6469
upperneck 25.2762 -5.02369 7.24571
head 11.9875 -2.50922 3.87117
rclavicle 7.61174e-014 1.59028e-014
rhumerus -16.4398 46.2974 -78.8877
rradius 122.901
rwrist 32.0977
rhand 8.02856 7.80471
rfingers 7.12502
rthumb 33.2542 -19.1415
lclavicle 7.61174e-014 1.59028e-014
lhumerus -39.5344 -30.2336 101.374
lradius 89.4314
lwrist 9.94378
lhand -20.8617 28.2786
lfingers 7.12502
lthumb 5.50792 58.187
rfemur -7.38757 4.35853 12.5756
rtibia 22.1425
rfoot -15.4746 -9.14138
rtoes 1.61802
lfemur 1.13006 1.10001 -22.0029
ltibia 14.445
lfoot -12.0844 9.3734
ltoes -12.2209
645
root 0.434779 17.9337 -0.223198 2.05158 -32.8477 -0.373313
lowerback -1.18498 -1.24858 -3.74361
upperback -0.476778 -1.62906 1.36802
thorax 0.318993 -0.814522 3.48057
lowerneck -19.3247 -4.58839 -11.6431
upperneck 25.3621 -4.96353 7.23124
head 12.0413 -2.48254 3.87636
rclavicle 1.01356e-013 -6.75868e-015
rhumerus -16.5902 46.2539 -78.9752
rradius 123.088
rwrist 32.7802
rhand 8.22292 7.68733
rfingers 7.12502
rthumb 33.439 -19.2192
lclavicle 1.01356e-013 -6.75868e-015
lhumerus -39.4547 -30.1036 101.257
lradius 89.4636
lwrist 10.0894
lhand -20.6675 28.3548
lfingers 7.12502
lthumb 5.69537 58.2583
rfemur -7.33088 4.46594 12.659
rtibia 22.2055
rfoot -15.4428 -9.06038
rtoes 1.85099
lfemur 1.32638 1.05397 -21.9654
ltibia 14.3705
lfoot -12.1008 9.661
ltoes -12.3252
646
root 0.431001 17.9346 -0.220081 2.1019 -32.8821 -0.448931
lowerback -1.17934 -1.28619 -3.65326
upperback -0.464562 -1.68034 1.37046
thorax 0.330426 -0.84065 3.43115
lowerneck -19.4057 -4.53233 -11.6392
upperneck 25.404 -4.88965 7.27695
head 12.0662 -2.44259 3.90645
rclavicle 1.90546e-014 -1.88845e-015
rhumerus -16.7214 46.2211 -79.1302
rradius 123.224
rwrist 33.6805
rhand 8.48693 7.72886
rfingers 7.12502
rthumb 33.6899 -19.1232
lclavicle 1.90546e-014 -1.88845e-015
lhumerus -39.3831 -29.982 101.087
lradius 89.4861
lwrist 10.1391
lhand -20.5364 28.3259
lfingers 7.12502
lthumb 5.82191 58.226
rfemur -7.33374 4.47371 12.7302
rtibia 22.2294
rfoot -15.5155 -8.9966
rtoes 2.64408
lfemur 1.34645 1.0592 -21.8933
ltibia 14.3434
lfoot -12.1075 9.68649
ltoes -12.2983
647
root 0.426832 17.9352 -0.217799 2.10539 -32.9124 -0.427604
lowerback -1.15919 -1.31074 -3.71566
upperback -0.469062 -1.71329 1.39823
thorax 0.320014 -0.856881 3.49488
lowerneck -19.3341 -4.48903 -11.6974
upperneck 25.2845 -4.81169 7.28245
head 11.9982 -2.41169 3.92877
rclavicle 3.15276e-014 -1.56046e-014
rhumerus -16.9422 46.1725 -79.2269
rradius 123.405
rwrist 34.6726
rhand 8.70843 7.48287
rfingers 7.12502
rthumb 33.9003 -19.323
lclavicle 3.15276e-014 -1.56046e-014
lhumerus -39.3154 -29.8472 101.007
lradius 89.4708
lwrist 10.1344
lhand -20.6168 28.0821
lfingers 7.12502
lthumb 5.74436 57.9842
rfemur -7.33954 4.41748 12.7136
rtibia 22.2124
rfoot -15.4631 -8.96447
rtoes 2.63501
lfemur 1.33092 1.0547 -21.91
ltibia 14.3671
lfoot -12.1133 9.72603
ltoes -12.1605
648
root 0.421496 17.9306 -0.205337 1.89395 -33.1034 -0.367892
lowerback -1.10787 -1.27053 -3.74278
upperback -0.382463 -1.66037 1.42286
thorax 0.377026 -0.833075 3.5366
lowerneck -19.314 -4.48328 -11.7403
upperneck 25.1927 -4.74496 7.14415
head 11.9492 -2.40168 3.89144
rclavicle -2.31592e-014 -7.85199e-015
rhumerus -17.1325 46.1028 -79.2236
rradius 123.57
rwrist 35.7384
rhand 8.89653 7.22011
rfingers 7.12502
rthumb 34.079 -19.5461
lclavicle -2.31592e-014 -7.85199e-015
lhumerus -39.2455 -29.7107 101.013
lradius 89.4271
lwrist 10.0536
lhand -20.8165 27.652
lfingers 7.12502
lthumb 5.55149 57.5593
rfemur -7.14947 4.42687 12.6427
rtibia 22.1788
rfoot -15.3231 -8.85759
rtoes 1.88288
lfemur 1.57525 0.889832 -22.0322
ltibia 14.406
lfoot -12.204 10.0724
ltoes -11.7723
649
root 0.41651 17.9313 -0.206656 1.91803 -33.0681 -0.416267
lowerback -1.05804 -1.29456 -3.75915
upperback -0.38881 -1.69442 1.47851
thorax 0.347759 -0.849483 3.60395
lowerneck -19.3327 -4.46267 -11.7224
upperneck 25.2276 -4.67947 7.00509
head 11.9553 -2.38844 3.8464
rclavicle 7.44682e-014 -6.16232e-015
rhumerus -17.338 45.9566 -79.2769
rradius 123.695
rwrist 36.9282
rhand 9.2514 7.0255
rfingers 7.12502
rthumb 34.416 -19.6649
lclavicle 7.44682e-014 -6.16232e-015
lhumerus -39.2907 -29.6874 101.054
lradius 89.4573
lwrist 9.9308
lhand -21.0843 27.3551
lfingers 7.12502
lthumb 5.29299 57.269
rfemur -7.11538 4.45122 12.7118
rtibia 22.154
rfoot -15.3388 -8.89676
rtoes 1.52933
lfemur 1.57289 0.902706 -21.957
ltibia 14.4405
lfoot -12.2019 10.0134
ltoes -11.8137
650
root 0.413302 17.9394 -0.222575 2.13865 -32.7234 -0.514845
lowerback -0.837897 -1.40284 -3.95881
upperback -0.556433 -1.84763 1.65589
thorax 0.0779494 -0.917316 3.90557
lowerneck -19.35 -4.44129 -11.7875
upperneck 25.3547 -4.59916 6.89385
head 11.9989 -2.3754 3.83082
rclavicle -2.52363e-014 -7.95139e-016
rhumerus -17.6727 45.7818 -79.2979
rradius 123.844
rwrist 38.1474
rhand 9.68782 6.82136
rfingers 7.12502
rthumb 34.8302 -19.7742
lclavicle -2.52363e-014 -7.95139e-016
lhumerus -39.4615 -29.5602 101.296
lradius 89.4766
lwrist 9.69739
lhand -21.3561 27.3524
lfingers 7.12502
lthumb 5.03052 57.2727
rfemur -7.22992 4.37483 12.87
rtibia 22.1641
rfoot -15.5419 -9.05279
rtoes 2.01287
lfemur 1.30158 1.13647 -21.7339
ltibia 14.4574
lfoot -12.1031 9.51097
ltoes -12.7459
651
root 0.408835 17.9409 -0.224235 2.21795 -32.6317 -0.536367
lowerback -0.644686 -1.42953 -4.25577
upperback -0.712608 -1.89122 1.91196
thorax -0.168933 -0.92962 4.34601
lowerneck -19.2937 -4.43355 -12.0788
upperneck 25.4579 -4.48312 6.81983
head 12.023 -2.36493 3.87329
rclavicle 2.69998e-014 2.00773e-014
rhumerus -18.0637 45.7034 -79.1942
rradius 123.911
rwrist 39.0627
rhand 9.85593 6.60984
rfingers 7.12502
rthumb 34.9897 -19.9486
lclavicle 2.69998e-014 2.00773e-014
lhumerus -39.6351 -29.2602 101.726
lradius 89.4273
lwrist 9.40265
lhand -21.3916 27.4677
lfingers 7.12502
lthumb 4.99627 57.3888
rfemur -7.30467 4.30409 12.9152
rtibia 22.2134
rfoot -15.5359 -9.08371
rtoes 1.86991
lfemur 1.21845 1.27434 -21.6736
ltibia 14.4405
lfoot -12.0646 9.36292
ltoes -13.576
652
root 0.395639 17.94 -0.229965 2.18898 -32.6228 -0.443932
lowerback -0.5889 -1.42995 -4.56194
upperback -0.752782 -1.89359 2.00597
thorax -0.228682 -0.927308 4.6192
lowerneck -19.1979 -4.40245 -12.1889
upperneck 25.4098 -4.39176 6.74908
head 11.9768 -2.34435 3.87887
rclavicle -4.83093e-014 1.82882e-014
rhumerus -18.3332 45.544 -79.2485
rradius 123.88
rwrist 39.7048
rhand 9.44542 6.41874
rfingers 7.12502
rthumb 34.6001 -20.2298
lclavicle -4.83093e-014 1.82882e-014
lhumerus -39.6794 -29.1791 101.873
lradius 89.4061
lwrist 9.31659
lhand -21.1931 27.6069
lfingers 7.12502
lthumb 5.18788 57.5234
rfemur -7.34185 4.40173 12.8835
rtibia 22.2508
rfoot -15.5917 -9.19544
rtoes 1.50722
lfemur 1.17532 1.32804 -21.7068
ltibia 14.4447
lfoot -12.0164 9.29764
ltoes -13.5876
653
root 0.382787 17.9367 -0.216518 2.0522 -32.9751 -0.279984
lowerback -0.826671 -1.3202 -4.6294
upperback -0.655926 -1.7354 1.91285
thorax -0.014476 -0.855655 4.5548
lowerneck -19.1027 -4.34839 -12.0162
upperneck 25.3051 -4.32539 6.56899
head 11.9005 -2.3196 3.78931
rclavicle 1.4033e-014 1.78906e-015
rhumerus -18.5446 45.3455 -79.4863
rradius 123.844
rwrist 40.3125
rhand 8.79659 6.01253
rfingers 7.12502
rthumb 33.9841 -20.7748
lclavicle 1.4033e-014 1.78906e-015
lhumerus -39.691 -29.221 101.796
lradius 89.454
lwrist 9.55843
lhand -21.066 27.8154
lfingers 7.12502
lthumb 5.31058 57.7288
rfemur -7.34983 4.69918 12.7062
rtibia 22.2888
rfoot -15.661 -9.07023
rtoes 2.00602
lfemur 1.32223 1.09735 -21.9551
ltibia 14.4433
lfoot -12.0494 9.85668
ltoes -13.309
654
root 0.387849 17.9405 -0.220731 2.16856 -32.8656 -0.374295
lowerback -0.757688 -1.36234 -4.43297
upperback -0.690103 -1.79602 1.90465
thorax -0.0875622 -0.883903 4.43651
lowerneck -19.0509 -4.30944 -11.8512
upperneck 25.2665 -4.25009 6.30175
head 11.8567 -2.30346 3.67063
rclavicle -4.92932e-014 -3.57812e-015
rhumerus -18.7042 45.1876 -79.6384
rradius 123.803
rwrist 40.7997
rhand 8.28781 5.34863
rfingers 7.12502
rthumb 33.5006 -21.5446
lclavicle -4.92932e-014 -3.57812e-015
lhumerus -39.7243 -29.1751 101.706
lradius 89.5559
lwrist 9.95184
lhand -20.9707 27.9668
lfingers 7.12502
lthumb 5.40267 57.8779
rfemur -7.42434 4.54236 12.7888
rtibia 22.3307
rfoot -15.7051 -9.00659
rtoes 2.30047
lfemur 1.25663 0.980785 -21.8692
ltibia 14.4151
lfoot -11.9711 9.85457
ltoes -13.1903
655
root 0.392631 17.9464 -0.241587 2.40506 -32.5308 -0.484668
lowerback -0.59977 -1.48915 -4.32006
upperback -0.791731 -1.97314 1.89846
thorax -0.265184 -0.9664 4.37008
lowerneck -19.0381 -4.25593 -11.7274
upperneck 25.2532 -4.17239 6.15729
head 11.8341 -2.27474 3.60699
rclavicle 1.43094e-014 1.19271e-015
rhumerus -18.8039 44.9341 -79.8528
rradius 123.739
rwrist 41.2272
rhand 8.13592 5.01009
rfingers 7.12502
rthumb 33.3563 -21.9143
lclavicle 1.43094e-014 1.19271e-015
lhumerus -39.7224 -29.1632 101.517
lradius 89.6099
lwrist 10.2579
lhand -20.8842 28.0196
lfingers 7.12502
lthumb 5.48614 57.9286
rfemur -7.57719 4.30682 12.9542
rtibia 22.3219
rfoot -15.6808 -9.18316
rtoes 1.76538
lfemur 0.958314 1.1992 -21.6226
ltibia 14.4346
lfoot -11.883 9.26321
ltoes -12.9989
